<svg width="27" height="29" viewBox="0 0 27 29" fill="none" xmlns="http://www.w3.org/2000/svg">
<path d="M20.375 7H20.3875M7.25 1H19.75C23.2018 1 26 3.98477 26 7.66667V21C26 24.6819 23.2018 27.6667 19.75 27.6667H7.25C3.79822 27.6667 1 24.6819 1 21V7.66667C1 3.98477 3.79822 1 7.25 1ZM18.5 13.4933C18.6543 14.603 18.4766 15.7363 17.9922 16.732C17.5078 17.7278 16.7414 18.5352 15.802 19.0396C14.8626 19.5439 13.7981 19.7195 12.7597 19.5412C11.7214 19.363 10.7622 18.8401 10.0185 18.0469C9.2749 17.2537 8.78466 16.2305 8.61758 15.123C8.4505 14.0154 8.61508 12.8799 9.08791 11.8778C9.56073 10.8758 10.3177 10.0583 11.2512 9.54166C12.1847 9.02499 13.2472 8.83545 14.2875 9C15.3487 9.16785 16.3311 9.69528 17.0896 10.5044C17.8482 11.3135 18.3426 12.3614 18.5 13.4933Z" stroke="#1E1E1E" stroke-width="2" stroke-linecap="round" stroke-linejoin="round"/>
</svg>
